Patient4_TMGait_0pt4_01_left_04_EMG.mot
version=1
nRows=33
nColumns=33
inDegrees=no
endheader
time	1LAddLong	2LGlutMax	3LGlutMed	4LIliopsoas	5LSemiMemb	6LBicFemLong	7LRecFem	8LVastMed	9LVastLat	10LGasMed	11LTibAnt	12lTibPost	13LPeroneusLong	14LSol	15LExtDigLong	16LFlexDigLong	17RAddLong	18RGlutMax	19RGlutMed	20RIliopsoas	21RSemiMemb	22RBicFemLong	23RRecFem	24RVastMed	25RVastLat	26RGasMed	27RTibAnt	28RTibPost	29RPeroneusLong	30RSol	31RExtDigLong	32RFlexDigLong
4.13	0.010681	0.007629	-0.048828	0	-0.002594	-0.034637	-0.10681	0.002899	0.15656	0.013428	-0.018463	-0.004272	0.052795	0.14145	0.1738	-0.006561	0.030975	-0.17853	0.015259	-0.001221	-0.10086	-0.033417	0.17807	0.14587	-0.74448	-0.035248	0.79926	-0.010681	-0.28656	-0.15839	0.001984	-0.016327
4.131	0.00473	-0.013275	-0.053406	0.002747	-0.008392	0.010529	-0.091553	0.00824	0.16327	-0.006409	-0.028839	-0.001831	0.06485	0.14755	0.10544	-0.008698	0.050354	-0.24628	-0.94772	0.067902	-0.11459	-0.002441	0.19669	0.024567	-0.41336	-0.007324	0.17044	0.000763	-0.09491	0.048218	-0.000153	0.00473
4.132	0.014954	0.031891	-0.056458	0.007324	-0.00061	0.004272	-0.097504	0.007172	0.15457	-0.004578	0.013428	0	0.045166	0.067444	-0.3183	-0.011597	0.082397	-0.27374	-0.82809	0.12207	0.009766	-0.036621	0.16998	-0.003967	-0.16266	0.011902	-0.045776	0.003052	-0.039368	0.46432	0.002899	0.00412
4.133	0.008392	0.030975	-0.037079	-0.007324	0.014954	0.000763	-0.099945	0.006256	0.16281	-0.011749	0.072784	0.00351	0.002899	-0.021667	0.012054	0.006104	0.093994	-0.26474	-0.5545	0.075378	0.10803	-0.069733	0.069427	-0.028992	-0.055695	0.014191	-0.94955	0.007477	-0.29846	0.4892	0.002899	0.015259
4.134	0.010681	0.039673	-0.043335	0.011749	0.012665	-0.007629	-0.10346	0.007324	0.14069	-0.006714	0.032349	0.000458	-0.006409	-0.18951	0.19806	-0.014191	0	-0.3212	-0.2594	-0.03006	-0.083923	0.046234	-0.14084	-0.036163	0.052795	0.014191	-0.7663	-0.00473	-0.3392	0.063477	-0.005951	0.011749
4.135	0.014191	0.032043	-0.015106	0.022888	0.006714	-0.033112	-0.11856	0.000305	0.15472	-0.024872	-0.049438	0.005951	0.029297	-0.32318	0.11093	-0.014038	-0.082397	-0.392	-0.063019	-0.033417	-0.085907	0.050964	-0.14145	-0.061646	0.10269	0.001526	1.0202	-0.007935	-0.39948	0.098724	-0.004272	-0.003357
4.136	0.007629	0.040588	0.015564	0.009155	0.004883	-0.052032	-0.098267	0.008698	0.16022	-0.046387	0.072937	0.002899	0.081635	-0.42938	0.29373	-0.008545	-0.018311	-0.32059	-0.21652	-0.064697	-0.027008	-0.041962	0.075378	-0.044708	0.045776	-0.003662	0.97366	-0.007477	0.027161	-0.068359	-0.00473	-0.004425
4.137	0.004578	0.010986	-0.005188	0.007477	-0.001373	-0.044098	-0.11368	0.009155	0.15656	-0.042725	0.19379	0.004883	0.08606	-0.043488	-0.14175	-0.001678	-0.009308	-0.2417	-0.48248	-0.06546	-0.12695	-0.062408	0.063324	0.077057	0.066833	-0.013123	0.13473	-0.017853	0.31754	-0.054932	-0.005798	-0.011749
4.138	0.011597	0.052643	-0.015106	0.0177	-0.001678	-0.035095	-0.10025	0.005493	0.15472	-0.008698	0.10178	0.003357	0.037994	0.2858	-0.16907	-0.020599	-0.0177	-0.075378	-0.634	0.01709	0.025024	-0.13992	0.10162	0.22369	-0.002136	0.013733	-1.2189	-0.012054	0.271	-0.37018	-0.001831	-0.017242
4.139	0.015564	0.041809	-0.022888	0.008545	-0.011902	-0.059814	-0.10635	0.007172	0.15717	-0.01358	-0.073395	0.00824	0.040283	0.023956	-0.31876	-0.033264	-0.019836	0.078888	-0.48782	0.072327	0.03891	-0.003357	0.22201	0.12299	-0.063477	0.003052	-0.88425	-0.006866	0.067596	-0.71228	0.002899	-0.018005
4.14	0.011292	0.01709	-0.018463	0.006714	-0.034332	-0.028687	-0.12054	0.00412	0.12848	-0.04837	-0.13168	-0.002899	0.059967	-0.27054	-0.26657	-0.014343	-0.030975	0.14542	0.15335	0.084076	-0.048676	0.15503	0.35614	-0.029755	-0.057068	-0.014191	-0.13367	-0.006256	-0.06424	-0.7843	-0.00412	-0.016022
4.141	0.010834	0.041504	0.006714	0.003052	-0.00946	-0.021515	-0.078888	0.006714	0.12177	-0.054474	-0.14236	0.01297	0.078888	-0.16892	-0.056305	-0.006104	-0.004425	0.15198	0.71899	0.14496	-0.10681	0.11429	0.46173	-0.079041	-0.048523	-0.004272	0.14404	-0.001831	0.019226	-0.33936	0.002289	-0.009155
4.142	0.017395	0.080261	-0.00824	0.002289	-0.01236	-0.003357	-0.093842	0.011139	0.10956	-0.015259	0.10834	0.005035	0.030823	0.051422	0.014954	-0.011749	0.007172	0.34088	0.85403	0.070953	-0.076294	0.088654	0.50491	0.00473	-0.049438	-0.000305	0.48859	-0.001678	0	-0.14099	0.000153	-0.011139
4.143	0.01297	0.097656	-0.015259	0.001526	-0.013275	0.016785	-0.08194	0.007172	0.10849	-0.010986	0.15228	0.000153	0.021973	0.17303	0.056458	-0.000305	-0.016174	0.37552	0.551	0.037079	0.087433	-0.006866	0.29327	0.012665	-0.037079	0.008087	0.2623	0.00061	-0.014191	0.39627	-0.001831	-0.01297
4.144	0.012207	0.063782	-0.036163	-0.014648	-0.011902	0.006866	-0.084229	0.009155	0.11002	0.001526	0.001068	0.011902	-0.007935	0.2301	0.036621	-0.002136	-0.034637	0.35797	0.81802	-0.039978	0.10422	-0.067291	0.10025	0.092773	0.053711	-0.011749	0.21729	-0.000763	-0.070343	0.62073	-0.001373	-0.00885
4.145	0.013275	0.05127	-0.051422	-0.005951	-0.02594	-0.006714	-0.086212	0.01297	0.10162	-0.007324	-0.096893	0.000763	-0.001831	0.16892	-0.001526	0.002747	-0.030212	0.24521	0.16953	-0.046234	0.053711	-0.088196	-0.18097	0.23178	0.088501	-0.03006	-0.89218	-0.000763	-0.079498	0.46646	-0.003052	-0.007172
4.146	0.00885	0.037689	-0.015259	0.024719	-0.023651	-0.023193	-0.093842	0.010529	0.10544	-0.004272	-0.00412	0.015106	0.018921	0.17044	0.083618	-0.001221	-0.011597	0.15884	0.42999	-0.065002	0.023804	-0.072174	-0.3688	-0.008545	0.071411	-0.018463	-0.45471	-0.006256	-0.026703	0.1091	-0.001984	-0.005035
4.147	0.012512	0.042419	-0.047607	0.020752	-0.019073	-0.002136	-0.10666	0.00885	0.11139	-0.010529	-0.048981	0.009308	0.040894	0.15808	0.045624	-0.002899	0.006866	0.15869	-0.33203	0.009155	-0.013275	-0.043182	-0.22949	-0.010071	-0.016174	-0.005646	-0.20935	-0.008545	-0.18143	-0.46341	-0.001068	-0.011902
4.148	0.013275	0.069122	-0.035858	-0.001373	-0.009766	-0.019226	-0.087891	0.006104	0.10742	-0.019836	-0.078278	0.007477	0.079193	0.13397	-0.15442	0.004272	0.001373	0.22553	-0.65582	0.029144	-0.002441	-0.012207	-0.49561	0.031433	-0.00061	0.000763	0.17853	-0.011597	-0.29175	-1.1752	0.000763	-0.021362
4.149	0.005798	0.061188	-0.047455	0.002594	-0.020752	-0.026093	-0.083466	0.009308	0.10819	-0.032043	-0.042267	0.009003	0.053253	0.059357	-0.003967	0.003052	0.000305	0.16144	-0.26764	0.003662	0.000763	-0.034332	-0.30533	-0.112	0.04303	-0.029449	0.68573	0.004425	-0.12543	-1.788	0	-0.014954
4.15	0.00946	0.027008	-0.038605	-0.002594	-0.049896	-0.033112	-0.08667	0.003967	0.10742	-0.021667	-0.015564	0.002594	0.056763	-0.018158	0.1297	0.004578	0.011597	0.22705	-0.52139	0.000763	-0.01709	-0.068054	0.14847	-0.12421	0.027618	-0.049133	1.0078	-0.01297	-0.047455	-1.7203	0.003052	-0.016937
4.151	0.00885	0.067291	-0.001831	-0.007172	-0.027771	-0.023041	-0.097351	0.005341	0.10956	-0.016479	0.005798	0.006104	0.057526	0.039215	-0.062866	0.011749	0.003204	0.31204	0.1535	0.020752	-0.033875	-0.060883	0.024872	-0.056763	0.022278	-0.026855	-0.20401	-0.011292	0.065308	-0.30167	0.001678	-0.006866
4.152	0.011444	0.050964	-0.015717	-0.001068	-0.01358	-0.036469	-0.083771	0.001526	0.11673	-0.018921	-0.014648	0.011902	0.11505	0.096741	-0.13229	0.002899	0.014801	0.34882	0.88119	-0.038147	-0.060272	-0.048828	-0.034637	0.028381	0.067444	-0.010681	-1.4149	-0.00061	-0.009308	1.1081	0	-0.003052
4.153	0.015564	0.054016	-0.012665	0.015564	-0.016022	-0.028687	-0.08728	0.001984	0.10529	-0.018616	-0.10605	0.009766	0.13458	0.076599	-0.076904	0.008545	0.002747	0.34271	0.40497	-0.11078	-0.072327	0.011292	-0.046387	-0.002136	0.032043	-0.016479	-0.74738	0.009003	-0.28015	1.8814	0.000763	-0.007324
4.154	0.003357	0.043793	-0.026398	0.019836	-0.016785	-0.022888	-0.07843	0.005341	0.10819	-0.00412	-0.10941	0.00351	0.070801	0.001678	0.00885	0.006714	0.017548	0.33829	0.035706	-0.13412	-0.082397	0.00885	-0.046539	-0.053558	0.00946	-0.013885	0.67841	0.006409	-0.24643	1.573	0.001373	0.003052
4.155	0.009155	0.036469	-0.04715	0.00885	-0.015259	-0.02655	-0.076141	0.007172	0.10712	0.004425	0.001526	0.006409	0.041809	-0.069733	-0.002441	0.005035	0.015869	0.34622	0.26199	-0.081329	-0.067291	0.007629	-0.24551	-0.16098	-0.014343	0.010986	1.5187	0.011292	-0.15121	0.94009	-0.008087	-0.001373
4.156	0.006561	0.029907	-0.043793	0.006409	-0.024567	-0.015869	-0.074768	0.004578	0.096283	0.007935	0.018616	0.009918	0.056152	-0.041962	-0.003815	0.001678	0.034027	0.31601	0.062714	0.067444	-0.063477	-0.036011	-0.08255	-0.18784	0.017548	0.02182	0.74997	0.004425	0.048981	0.59921	-0.005341	0.003357
4.157	0.014496	0.02655	-0.053253	0.00351	-0.040131	-0.011292	-0.066071	0.001068	0.084686	0.002136	0.027618	-0.002594	0.060425	0.001984	0.019073	0.010681	0.030823	0.24567	-0.10559	0.1857	0.031128	-0.094299	0.1236	-0.31158	-0.085144	0.00946	0.22125	0.000305	0.088043	0.33844	-0.001221	-0.005951
4.158	0.007019	0.039215	-0.020752	0.006104	-0.031128	-0.018311	-0.072937	0.00885	0.099182	-0.001984	0.063171	-0.000916	0.016174	0.085907	0.01709	0.004883	0.012512	0.3093	-0.2359	0.13397	0.036163	-0.10269	0.34744	-0.14572	-0.026245	0.002594	0.23025	-0.003662	0.065918	-0.063629	-0.00412	-0.014648
4.159	0.005951	0.053101	-0.031433	0.002441	-0.021057	-0.012665	-0.060883	-0.000916	0.09552	-0.00473	0.059357	0.00061	0.061798	0.099945	0.11307	0.004578	-0.006714	0.29083	0.00061	0.11459	-0.009766	-0.053711	0.14328	-0.049744	0.12344	0.001526	-0.64606	-0.004578	0.040131	-0.57342	-0.002136	-0.011139
4.16	0.003815	0.036621	-0.052795	0.001221	-0.016327	-0.009003	-0.093994	0.006104	0.10101	-0.026703	-0.053864	0.005951	0.06546	0.066833	0.077972	-0.007172	-0.009003	0.20432	0.036163	0.036926	-0.1651	0.054626	0.10849	-0.081024	0.040588	0.020752	-0.32486	-0.004883	0.033569	-0.58166	-0.001678	-0.00061
4.161	0.000153	0.029297	-0.079651	0.02121	-0.019836	0.005646	-0.065765	0.007324	0.083923	-0.014648	-0.044098	-0.001068	0.023499	0.009308	0.063934	-0.006256	0.027161	0.20401	-0.31403	0.018616	-0.13794	0.10284	0.008392	-0.12787	0.031586	0.013733	-0.67902	-0.015564	0.011139	-0.63873	0.001526	-0.003052
4.162	0.009003	0.061035	-0.064697	0.013275	-0.049133	-0.028076	-0.050507	0.003662	0.080261	0.009003	-0.00946	0.00351	0.021362	-0.005341	-0.039673	-0.009003	0.017395	0.17319	-0.43579	0.037994	0.16403	0.070648	-0.17502	-0.062103	0.10971	-0.01358	-0.513	-0.024567	-0.20325	-0.53528	0.005035	-0.009766
